<svg xmlns="http://www.w3.org/2000/svg" id="illustration" height="512" viewBox="0 0 100 100" width="512"><g><g><ellipse cx="39.228" cy="46.915" fill="#94af48" rx="34.623" ry="32.469"></ellipse><path d="m39.228 79.989c-19.425 0-35.228-14.837-35.228-33.074s15.803-33.074 35.228-33.074 35.229 14.837 35.229 33.074-15.804 33.074-35.229 33.074zm0-64.937c-18.757 0-34.017 14.294-34.017 31.863s15.26 31.863 34.017 31.863c18.758 0 34.018-14.294 34.018-31.863s-15.26-31.863-34.018-31.863z"></path></g><path d="m45.58 20.789c-.139-.303-.497-.437-.803-.298l-3.999 1.837-5.601-2.614c-.301-.141-.663-.01-.805.293-.141.303-.01.663.293.805l4.67 2.179-4.231 1.944c-.304.14-.437.499-.298.803.102.222.321.353.551.353.084 0 .17-.018.252-.055l5.165-2.373 3.824 1.785c.083.038.17.057.256.057.228 0 .446-.129.549-.349.141-.303.01-.663-.293-.805l-2.893-1.35 3.066-1.408c.303-.141.436-.5.297-.804z"></path><g><g><path d="m35.23 54.094s.997 32.008 30.018 31.452c30.436-.583 30.146-32.63 30.146-32.63-34.85 6.658-60.164 1.178-60.164 1.178z" fill="#a2d5b0"></path></g><path d="m81.256 55.199-16.957 1.277-16.222-.563c-2.665.099-4.602 3.273-3.659 5.606l.994 2.459c.931 2.305 3.988 3.088 6.056 1.553l.062-.002-.009.007c-2.113 1.532-2.003 4.549.214 5.927l2.338 1.453c2.19 1.362 5.171.332 5.905-2.04l-.014.244c-.78 2.392 1.174 4.784 3.84 4.701l2.809-.087c2.632-.082 4.432-2.536 3.566-4.862l-.09-.311c.88 2.322 3.919 3.164 6.02 1.669l2.243-1.595c2.128-1.514 2.048-4.531-.156-5.929l-.01-.006.096-.003c2.16 1.403 5.161.431 5.948-1.927l.839-2.516c.795-2.388-1.147-5.123-3.813-5.055z" fill="#fff"></path><path d="m95.778 52.449c-.139-.114-.32-.161-.497-.127-34.315 6.556-59.67 1.236-59.922 1.181-.181-.039-.373.007-.515.127-.143.119-.224.298-.218.484.01.324 1.33 32.046 29.883 32.046.248 0 .499-.002.751-.007 30.68-.589 30.743-32.915 30.74-33.242-.002-.179-.083-.349-.222-.462zm-14.317 3.194c1.055-.012 2.042.468 2.701 1.359.643.868.838 1.952.522 2.899l-.838 2.516c-.304.911-1.031 1.627-1.994 1.964-1.036.363-2.148.233-3.049-.352-.075-.049-.158-.076-.242-.088l-11.646-7.243c4.497-.149 9.36-.477 14.528-1.058.005-.001.011.003.018.003zm-29.407 10.23 11.78-8.155-4.104 12.585c-.062.065-.113.141-.141.233-.283.914-.992 1.642-1.945 1.997-1.015.379-2.16.268-3.063-.293l-2.338-1.452c-.884-.55-1.41-1.43-1.445-2.416-.035-.983.427-1.897 1.256-2.499zm8.674 5.273 4.276-13.112 4.797 12.887c.324.869.207 1.816-.319 2.599-.586.871-1.594 1.412-2.699 1.447l-2.81.088c-1.112.026-2.166-.452-2.803-1.302-.572-.762-.733-1.713-.442-2.607zm10.116-.961c-.014-.038-.041-.066-.062-.099l-4.63-12.438 11.909 7.407c.877.556 1.395 1.44 1.421 2.424.027.986-.445 1.897-1.292 2.501l-2.243 1.595c-.867.617-2.006.796-3.039.483-.972-.295-1.725-.978-2.064-1.873zm-7.788-13.4-11.577 8.014c-.063.02-.126.044-.182.086-.864.642-1.964.84-3.023.542-.982-.276-1.752-.946-2.112-1.836l-.994-2.458c-.373-.924-.203-2.118.443-3.115.649-1.001 1.65-1.621 2.677-1.659.019-.001.034-.01.053-.013 4.113.304 9.076.506 14.715.439zm28.113 12.01c-4.851 10.477-13.577 15.909-25.933 16.146-11.756.246-20.284-4.87-25.319-15.144-3.102-6.331-3.859-12.789-4.033-14.959 1.446.266 4.856.832 9.827 1.288-.423.337-.802.75-1.115 1.232-.871 1.344-1.076 2.924-.55 4.228l.994 2.458c.501 1.241 1.56 2.169 2.906 2.548.432.122.87.181 1.303.181.218 0 .434-.021.648-.051-.218.53-.329 1.101-.308 1.695.049 1.395.784 2.635 2.016 3.401l2.338 1.453c.741.461 1.602.696 2.468.696.56 0 1.122-.099 1.657-.298.529-.198.985-.5 1.39-.852.118.589.364 1.156.745 1.663.845 1.127 2.204 1.788 3.66 1.788.05 0 .099-.001.149-.002l2.81-.088c1.493-.046 2.864-.787 3.666-1.981.357-.532.577-1.118.662-1.72.418.314.88.58 1.408.74.45.137.913.204 1.375.204.968 0 1.925-.295 2.717-.859l2.243-1.595c1.181-.841 1.838-2.123 1.8-3.519-.016-.598-.165-1.164-.418-1.682.132.011.264.029.397.029.528 0 1.061-.09 1.58-.271 1.32-.462 2.32-1.454 2.744-2.724l.838-2.516c.44-1.321.179-2.816-.698-4.002-.279-.377-.613-.698-.98-.969 3.425-.436 6.968-.981 10.617-1.663-.089 2.14-.601 8.661-3.604 15.145z"></path></g><path d="m11.991 31.219s-4.309 4.77-4.616 14.311 5.694 18.312 5.694 18.312-3.54-10.31-3.54-17.542 2.462-15.081 2.462-15.081z" fill="#fff"></path><path d="m38.705 56.126-2.092-.286s1.308 11.772 6.617 18.004c4.869 5.716 5.232 5.386 5.232 5.386s-5.232-6.078-7.54-12.541c-2.309-6.463-2.217-10.563-2.217-10.563z" fill="#fff"></path><path d="m77.413 40.36c-.306.012-.577-.208-.622-.518-.186-1.279-.457-2.556-.806-3.796-.091-.322.097-.656.419-.747.322-.089.656.097.747.419.363 1.29.645 2.618.839 3.949.048.331-.181.638-.512.686-.023.004-.044.006-.065.007z"></path><path d="m75.85 34.2c-.255.01-.499-.144-.592-.396-3.098-8.419-9.898-15.264-18.655-18.781-.311-.124-.461-.477-.336-.787.124-.311.477-.462.787-.336 9.075 3.643 16.125 10.745 19.341 19.486.115.314-.045.662-.359.777-.062.023-.125.035-.186.037z"></path></g></svg>