<svg xmlns="http://www.w3.org/2000/svg" id="illustration" height="512" viewBox="0 0 100 100" width="512"><path d="m88.9177 54.7142a3.7439 3.7439 0 0 0 -2.4545-1.1622c.03-.1111 2.1194-8.0258 2.6841-10.0039.0216-.0759.0414-.1438.058-.2012.7518-2.5576 2.6848-1.9021 2.9934-1.7787-.9187 3.5093-2.5987 11.3709-3.281 13.146z" fill="#fff"></path><path d="m88.9177 55.214a.4991.4991 0 0 1 -.375-.1694 3.2694 3.2694 0 0 0 -2.0981-.9932.5.5 0 0 1 -.4644-.6294l.0615-.2314c1.3624-5.15 2.2945-8.623 2.6246-9.78l.04-.1391a3.1725 3.1725 0 0 1 1.5474-2.13 2.7318 2.7318 0 0 1 2.1293-.0376.5.5 0 0 1 .2989.5908c-.3433 1.3106-.7881 3.2124-1.26 5.2256-.7861 3.3589-1.6 6.8325-2.0381 7.9736a.5011.5011 0 0 1 -.3794.3125.4821.4821 0 0 1 -.0867.0076zm-1.8252-2.0869a4.2109 4.2109 0 0 1 1.5855.7168c.4516-1.5156 1.1465-4.4834 1.771-7.1518.4184-1.7867.8164-3.4854 1.1421-4.77a1.5333 1.5333 0 0 0 -.8994.1182 2.1808 2.1808 0 0 0 -1.0069 1.4473l-.0566.1967c-.3218 1.1274-1.2202 4.475-2.5357 9.4428z"></path><circle cx="86.463" cy="53.552" r=".5"></circle><path d="m92.0305 42.0392a.5159.5159 0 0 1 -.2773-.6552.4844.4844 0 0 1 .6255-.2823l-.1382.4839z"></path><path d="m89.1473 43.5481c-.5647 1.9781-2.6545 9.8928-2.6841 10.0039a3.4877 3.4877 0 0 0 -1.9275.5289c.0272-.0827 1.3288-4.1851 2.0731-6.8056.2216-.7795.3932-1.4276.4679-1.8a2.6122 2.6122 0 0 1 2.0706-1.9272z" fill="#fff"></path><path d="m84.5364 54.5807a.5.5 0 0 1 -.4761-.6548c.0112-.0341 1.3237-4.1694 2.0674-6.7875.2378-.836.3921-1.4283.459-1.7613a3.0874 3.0874 0 0 1 2.4707-2.3208.496.496 0 0 1 .46.1558.5014.5014 0 0 1 .11.4731c-.3286 1.1509-1.2588 4.6172-2.62 9.7613l-.0625.2353a.4977.4977 0 0 1 -.5014.37 2.999 2.999 0 0 0 -1.6543.46.5.5 0 0 1 -.2528.0689zm3.8584-10.1928a1.8139 1.8139 0 0 0 -.8277 1.186c-.0717.3589-.2324.977-.4775 1.8379-.5176 1.8223-1.3071 4.3682-1.749 5.7788a3.7811 3.7811 0 0 1 .7353-.1309c1.0708-4.0454 1.8721-7.041 2.3189-8.6718z"></path><path d="m89.15 44.048h-.0025a.5.5 0 1 1 .0025 0z"></path><circle cx="84.536" cy="54.081" r=".5"></circle><path d="m86.6088 47.2753c-.7443 2.6205-2.0459 6.7229-2.0731 6.8056a5.5215 5.5215 0 0 0 -.8566.6333 19.8352 19.8352 0 0 0 -1.4171 1.4121 55.3 55.3 0 0 0 2.36-6.357 4.1608 4.1608 0 0 1 1.9868-2.494z" fill="#fff"></path><path d="m82.262 56.6261a.5.5 0 0 1 -.46-.6962 49.6992 49.6992 0 0 0 2.33-6.2588 4.65 4.65 0 0 1 2.2236-2.8272.5.5 0 0 1 .7339.5679c-.7485 2.6367-2.0674 6.79-2.0781 6.8237a.5014.5014 0 0 1 -.2207.2754 5.0773 5.0773 0 0 0 -.7793.5767 19.27 19.27 0 0 0 -1.3814 1.3769.4985.4985 0 0 1 -.368.1616zm3.3969-7.8818a2.6622 2.6622 0 0 0 -.5464 1.1226 32.4439 32.4439 0 0 1 -1.4663 4.2221q.2322-.183.4693-.3359c.2021-.6392.9245-2.9341 1.5434-5.0088z"></path><path d="m82.2366 56.6847a.5.5 0 0 1 -.4561-.7046.5288.5288 0 0 1 .669-.2832.4739.4739 0 0 1 .2724.625l-.0293.0679a.5.5 0 0 1 -.456.2949z"></path><path d="m96.2455 40.0728c.6542 1.6367.3672 4.8183-1.106 14.8049s-4.0678 15.3475-5.05 16.33-3.59 3.808-6.373 4.9548-7.4056 3.7654-9.37 5.73l-3.2741 3.2741-9.1682-9.1682c3.6833-3.6833 3.7654-6.876 5.4028-9.8231s4.5838-2.62 7.8586-3.6025c2.7322-.819 4.7806-3.9191 7.0963-6.4458l.0006-.0006a19.8352 19.8352 0 0 1 1.4171-1.4121 5.5215 5.5215 0 0 1 .8566-.6333 3.4877 3.4877 0 0 1 1.9275-.5289 3.7439 3.7439 0 0 1 2.4545 1.1622c.6826-1.7751 2.3626-9.6367 3.281-13.146.1833-.698.3357-1.2245.4443-1.4961a1.9352 1.9352 0 0 1 3.602.0006z" fill="#fff"></path><path d="m71.072 85.6667a.4987.4987 0 0 1 -.3535-.1465l-9.1685-9.1685a.5.5 0 0 1 0-.707 16.4485 16.4485 0 0 0 4.0069-6.6831 21.5262 21.5262 0 0 1 1.3125-3.0288c1.3227-2.3828 3.4614-2.813 5.7256-3.2686.7851-.1582 1.5971-.3213 2.4267-.57 1.98-.5937 3.6094-2.5112 5.3345-4.5415.5059-.5952 1.0146-1.1938 1.5366-1.7632a20.31 20.31 0 0 1 1.4541-1.4487 6.0678 6.0678 0 0 1 .9341-.69 3.9654 3.9654 0 0 1 2.2007-.5982 4.0349 4.0349 0 0 1 2.1963.7915c.4516-1.5156 1.1465-4.4834 1.771-7.1518.4731-2.02.9194-3.9273 1.2656-5.2505a15.6712 15.6712 0 0 1 .4639-1.5547 2.403 2.403 0 0 1 2.2656-1.5425h.001a2.4027 2.4027 0 0 1 2.2646 1.543c.6807 1.7031.48 4.519-1.0757 15.063-1.4931 10.1215-4.1425 15.562-5.1914 16.6108l-.3105.3145c-1.17 1.1909-3.605 3.6694-6.2256 4.749-2.8843 1.1885-7.375 3.789-9.207 5.6211l-3.274 3.274a.4984.4984 0 0 1 -.3535.1467zm-8.4663-9.6734 8.4663 8.4667 2.92-2.9209c2.1206-2.1206 6.899-4.7534 9.5332-5.8388 2.4312-1.0015 4.77-3.3814 5.8931-4.5249l.3169-.3208c.9336-.9341 3.4663-6.2715 4.9092-16.0493 1.3828-9.3741 1.7622-12.9805 1.1362-14.5464a1.4215 1.4215 0 0 0 -1.3364-.9141 1.4213 1.4213 0 0 0 -1.3369.9136c-.0913.2285-.2344.7124-.4253 1.4375-.3428 1.31-.7876 3.2114-1.2593 5.2246-.7861 3.3589-1.6 6.8325-2.0381 7.9736a.5.5 0 0 1 -.8432.1494 3.27 3.27 0 0 0 -2.0967-.9917 3.0461 3.0461 0 0 0 -1.6543.46 5.061 5.061 0 0 0 -.7788.5762 19.27 19.27 0 0 0 -1.3816 1.3765c-.5132.56-1.0132 1.1489-1.5112 1.7344-1.7437 2.0522-3.5469 4.1743-5.81 4.853-.874.2622-1.7089.43-2.5166.5928-2.207.4438-3.95.7944-5.0488 2.7734a20.8674 20.8674 0 0 0 -1.25 2.8936 17.6952 17.6952 0 0 1 -3.8877 6.6816z"></path><path d="m79.905 69.424a.5.5 0 0 1 -.4453-.7261 32.59 32.59 0 0 1 5.4-7.41c3.2539-3.2544 4.4609-4.8677 3.51-6.4366a.5.5 0 1 1 .8554-.5185c1.4092 2.3252-.4419 4.4458-3.6582 7.6621a32.214 32.214 0 0 0 -5.2156 7.1551.4994.4994 0 0 1 -.4463.274z"></path><path d="m56.8949 84.3022 10.7285 10.6778a.91.91 0 0 0 1.2834 0l5.73-5.73a.91.91 0 0 0 0-1.2834l-12.6342-12.6348a.91.91 0 0 0 -1.2833 0l-5.73 5.73a.91.91 0 0 0 0 1.2833" fill="#a2d5b0"></path><path d="m68.2649 95.7453a1.4028 1.4028 0 0 1 -.9951-.4116l-10.7276-10.6768a.5.5 0 0 1 .7051-.709l10.7285 10.6778a.4083.4083 0 0 0 .5777.0009l5.73-5.73a.4082.4082 0 0 0 0-.5762l-12.6343-12.6352a.42.42 0 0 0 -.5757 0l-5.731 5.7305a.41.41 0 0 0 0 .5757.5.5 0 0 1 -.707.708 1.4105 1.4105 0 0 1 0-1.9907l5.73-5.73a1.4432 1.4432 0 0 1 1.99 0l12.635 12.6343a1.4087 1.4087 0 0 1 0 1.99l-5.73 5.73a1.4033 1.4033 0 0 1 -.9956.4123z"></path><path d="m69.6779 90.0209a1.5971 1.5971 0 1 1 0-2.2587" fill="#fff"></path><path d="m68.5486 90.9884a2.0969 2.0969 0 0 1 -1.4829-3.5795 2.147 2.147 0 0 1 2.9658 0 .5.5 0 0 1 -.707.707 1.1227 1.1227 0 0 0 -1.5518 0 1.0982 1.0982 0 0 0 0 1.5513 1.1227 1.1227 0 0 0 1.5518 0 .5.5 0 0 1 .707.707 2.083 2.083 0 0 1 -1.4829.6142z"></path><path d="m85.1912 79.2321a.5.5 0 0 1 -.1739-.9687 14.2628 14.2628 0 0 0 1.9991-.9244.5.5 0 0 1 .4892.8721 15.2552 15.2552 0 0 1 -2.1406.99.4932.4932 0 0 1 -.1738.031z"></path><path d="m89.3489 76.863a.5.5 0 0 1 -.314-.89 16.7818 16.7818 0 0 0 4.9033-6.6265.5.5 0 0 1 .9429.3335 17.49 17.49 0 0 1 -5.2192 7.0723.4985.4985 0 0 1 -.313.1107z"></path><path d="m52.5417 79.8317a.5.5 0 0 1 -.3535-.8535l3.7886-3.7882a.5.5 0 0 1 .707.7071l-3.7885 3.7885a.4984.4984 0 0 1 -.3536.1461z"></path><path d="m57.8982 74.4753a.5.5 0 0 1 -.3535-.8536l1.062-1.062a.5.5 0 1 1 .707.7071l-1.062 1.062a.4986.4986 0 0 1 -.3535.1465z"></path><path d="m11.0824 54.7142a3.7443 3.7443 0 0 1 2.4546-1.1622c-.03-.1111-2.1194-8.0258-2.6842-10.0039-.0216-.0759-.0413-.1438-.058-.2012-.7517-2.5576-2.6847-1.9021-2.9933-1.7787.9185 3.5093 2.5985 11.3709 3.2809 13.146z" fill="#fff"></path><path d="m11.0823 55.2131a.5.5 0 0 1 -.4668-.3194c-.4385-1.1401-1.2505-4.6089-2.0355-7.9637-.4721-2.0171-.9184-3.9224-1.2622-5.2354a.5.5 0 0 1 .2989-.5908 2.7281 2.7281 0 0 1 2.13.0376 3.1135 3.1135 0 0 1 1.5279 2.0644l.0595.2056c.5391 1.8867 2.4644 9.1719 2.6822 9.9961a.5181.5181 0 0 1 -.08.4336.503.503 0 0 1 -.3809.21 3.2691 3.2691 0 0 0 -2.0981.9937.5047.5047 0 0 1 -.375.1683zm-2.6734-13.2906c.3267 1.2867.7251 2.9888 1.1446 4.7793.6235 2.6646 1.3173 5.6284 1.7685 7.1426a4.2032 4.2032 0 0 1 1.5855-.7173c-.5137-1.9409-2.063-7.7866-2.5357-9.4419l-.0385-.1343a2.2458 2.2458 0 0 0 -1.0245-1.51 1.53 1.53 0 0 0 -.8999-.1184z"></path><circle cx="13.537" cy="53.552" r=".5"></circle><path d="m7.7922 42.07a.5093.5093 0 0 1 -.4707-.2939.4813.4813 0 0 1 .2207-.64c.0122-.0058.0664-.0288.0791-.0337a.5.5 0 0 1 .36.9326.5193.5193 0 0 1 -.1891.035z"></path><path d="m10.8528 43.5481c.5648 1.9781 2.6545 9.8928 2.6842 10.0039a3.4872 3.4872 0 0 1 1.9274.5289c-.0271-.0827-1.3288-4.1851-2.0731-6.8056-.2216-.7795-.3931-1.4276-.4678-1.8a2.6122 2.6122 0 0 0 -2.0707-1.9272z" fill="#fff"></path><path d="m15.4636 54.5807a.497.497 0 0 1 -.2529-.0693 3.0339 3.0339 0 0 0 -1.6553-.46.4741.4741 0 0 1 -.5019-.3715c-.2222-.84-2.1451-8.1163-2.6817-9.9947a.5014.5014 0 0 1 .11-.4731.496.496 0 0 1 .46-.1558 3.0879 3.0879 0 0 1 2.4712 2.3213c.0664.3316.2251.94.4585 1.7608.7481 2.6342 2.0567 6.7534 2.0669 6.7856a.5007.5007 0 0 1 -.4756.6567zm-1.54-1.521a3.786 3.786 0 0 1 .7358.1309c-.4424-1.4092-1.2305-3.95-1.75-5.7788-.2437-.8569-.4043-1.4751-.4771-1.8374a1.8151 1.8151 0 0 0 -.8281-1.1865c.6651 2.4209 1.9366 7.2231 2.3199 8.6721z"></path><path d="m10.8528 44.048a.5.5 0 0 1 -.0025-1h.0025a.5.5 0 1 1 0 1z"></path><circle cx="15.465" cy="54.081" r=".5"></circle><path d="m13.3913 47.2753c.7443 2.6205 2.046 6.7229 2.0731 6.8056a5.5221 5.5221 0 0 1 .8567.6333 19.834 19.834 0 0 1 1.417 1.4121 55.3188 55.3188 0 0 1 -2.36-6.357 4.16 4.16 0 0 0 -1.9868-2.494z" fill="#fff"></path><path d="m17.738 56.6261a.5.5 0 0 1 -.3681-.1616 19.2829 19.2829 0 0 0 -1.3809-1.3769 5.082 5.082 0 0 0 -.7793-.5767.5007.5007 0 0 1 -.22-.2729c-.01-.03-1.3272-4.1758-2.08-6.8262a.5.5 0 0 1 .7339-.5679 4.6522 4.6522 0 0 1 2.2241 2.8277 49.1844 49.1844 0 0 0 2.33 6.2583.5.5 0 0 1 -.46.6962zm-1.853-2.873c.1572.1011.314.2134.4688.3359a32.214 32.214 0 0 1 -1.4659-4.2216 2.6656 2.6656 0 0 0 -.5468-1.1236c.6206 2.0811 1.3427 4.374 1.5439 5.0093z"></path><path d="m17.7634 56.6847a.5.5 0 0 1 -.456-.2949l.44-.2666.4726-.1432a.5.5 0 0 1 -.4561.7046z"></path><path d="m3.7546 40.0728c-.6546 1.6372-.3672 4.8183 1.106 14.8049s4.0679 15.3475 5.05 16.33 3.59 3.808 6.373 4.9548 7.4056 3.7654 9.37 5.73l3.2742 3.2741 9.1682-9.1682c-3.6833-3.6833-3.7654-6.876-5.4028-9.8231s-4.5838-2.62-7.8586-3.6025c-2.7323-.819-4.7807-3.9191-7.0964-6.4458l-.0006-.0006a19.834 19.834 0 0 0 -1.417-1.4121 5.5221 5.5221 0 0 0 -.8567-.6333 3.4872 3.4872 0 0 0 -1.9274-.5289 3.7443 3.7443 0 0 0 -2.4546 1.1622c-.6819-1.7752-2.3619-9.6368-3.2804-13.1461a15.5859 15.5859 0 0 0 -.4444-1.4961 1.9352 1.9352 0 0 0 -3.6025.0007z" fill="#fff"></path><path d="m28.9285 85.6667a.4984.4984 0 0 1 -.3535-.1465l-3.2745-3.2744c-1.8325-1.8325-6.3227-4.4331-9.207-5.6211-2.6186-1.0786-5.0535-3.5567-6.2235-4.7471l-.3125-.3164c-1.049-1.0488-3.6984-6.4893-5.1915-16.6112-1.556-10.5436-1.756-13.3595-1.076-15.0626a2.4026 2.4026 0 0 1 2.2651-1.543h.0005a2.403 2.403 0 0 1 2.2656 1.5415 15.4993 15.4993 0 0 1 .4634 1.5552c.3472 1.3257.7949 3.2373 1.2686 5.2607.6235 2.6646 1.3173 5.6284 1.7685 7.1426a4.031 4.031 0 0 1 2.1963-.792 3.96 3.96 0 0 1 2.2.5977 6.0943 6.0943 0 0 1 .9351.69 20.3435 20.3435 0 0 1 1.4526 1.4473c.5225.57 1.0308 1.1679 1.5366 1.7631 1.7256 2.0308 3.356 3.9493 5.336 4.543.8295.249 1.6416.4121 2.4267.57 2.2637.4556 4.4024.8858 5.7251 3.2686a21.561 21.561 0 0 1 1.313 3.03 16.4537 16.4537 0 0 0 4.0069 6.6826.5.5 0 0 1 0 .707l-9.168 9.1683a.4987.4987 0 0 1 -.3535.1467zm-24.7095-45.4082c-.626 1.5659-.2466 5.1723 1.1362 14.5464 1.4429 9.7778 3.9756 15.1151 4.9092 16.0493l.3184.3222c1.124 1.1436 3.4619 3.5225 5.8916 4.5235 2.6338 1.0849 7.4121 3.7177 9.5332 5.8388l2.9209 2.9213 8.4658-8.4663a17.71 17.71 0 0 1 -3.8872-6.6806 20.8341 20.8341 0 0 0 -1.2505-2.8946c-1.0991-1.979-2.8418-2.33-5.0483-2.7734-.8077-.1626-1.6426-.3306-2.5166-.5928-2.2632-.6787-4.0665-2.8-5.81-4.8525-.4976-.5855-.9981-1.1743-1.5117-1.7344a19.1976 19.1976 0 0 0 -1.3809-1.3774 5.082 5.082 0 0 0 -.7793-.5767 3.0363 3.0363 0 0 0 -1.6543-.4595 3.2691 3.2691 0 0 0 -2.0981.9937.5086.5086 0 0 1 -.4639.16.5.5 0 0 1 -.3779-.3115c-.438-1.14-1.2505-4.6089-2.0357-7.9638-.4721-2.0171-.9184-3.9224-1.2622-5.2354-.1889-.7207-.332-1.2041-.4248-1.4375a1.4351 1.4351 0 0 0 -2.6738.0015z"></path><path d="m20.095 69.424a.5.5 0 0 1 -.4463-.2739 32.22 32.22 0 0 0 -5.2154-7.1553c-3.2163-3.2163-5.0678-5.3374-3.6586-7.6621a.5.5 0 1 1 .8554.5185c-.9511 1.5684.2559 3.1822 3.51 6.4366a32.5973 32.5973 0 0 1 5.4 7.41.5.5 0 0 1 -.4453.7261z"></path><path d="m43.1052 84.3022-10.7285 10.6778a.91.91 0 0 1 -1.2833 0l-5.73-5.73a.91.91 0 0 1 0-1.2834l12.6341-12.6348a.91.91 0 0 1 1.2834 0l5.73 5.73a.91.91 0 0 1 0 1.2833" fill="#a2d5b0"></path><path d="m31.7356 95.7453a1.4033 1.4033 0 0 1 -.9956-.4116l-5.73-5.73a1.4087 1.4087 0 0 1 0-1.99l12.6338-12.6355a1.4084 1.4084 0 0 1 1.9907 0l5.73 5.73a1.41 1.41 0 0 1 0 1.99.5.5 0 1 1 -.707-.707.4133.4133 0 0 0 -.0005-.5762l-5.73-5.7305a.4071.4071 0 0 0 -.5767 0l-12.6337 12.6355a.4082.4082 0 0 0 0 .5762l5.73 5.73a.4073.4073 0 0 0 .5762 0l10.7299-10.6783a.5.5 0 0 1 .7051.709l-10.7286 10.6777a1.3993 1.3993 0 0 1 -.9936.4107z"></path><path d="m30.3222 90.0209a1.5971 1.5971 0 1 0 0-2.2587" fill="#fff"></path><path d="m31.4514 90.9884a2.0818 2.0818 0 0 1 -1.4829-.6142.5.5 0 0 1 .707-.707 1.1227 1.1227 0 0 0 1.5518 0 1.0969 1.0969 0 0 0 0-1.5513 1.1227 1.1227 0 0 0 -1.5518 0 .5.5 0 0 1 -.707-.707 2.147 2.147 0 0 1 2.9658 0 2.0969 2.0969 0 0 1 -1.4829 3.5795z"></path><path d="m30.4275 60.9313a.5006.5006 0 0 1 -.22-.0512 1.4989 1.4989 0 0 0 -.4263-.1656c-.0986-.0224-.227-.0517-.4575-.1235a.5.5 0 0 1 .2978-.9551c.1929.0606.3008.085.3833.104a2.422 2.422 0 0 1 .6441.2427.5.5 0 0 1 -.2212.9487z"></path><path d="m36.7419 67.1481a.5012.5012 0 0 1 -.4619-.3081 12.4547 12.4547 0 0 0 -3.893-4.7124.5.5 0 1 1 .5849-.8115 13.2471 13.2471 0 0 1 4.232 5.1406.5006.5006 0 0 1 -.4615.6914z"></path><path d="m29.1331 97.9992a.4984.4984 0 0 1 -.3536-.1465l-3.7885-3.7886a.5.5 0 0 1 .707-.707l3.7886 3.7886a.5.5 0 0 1 -.3535.8535z"></path><path d="m23.7766 92.6427a.4986.4986 0 0 1 -.3535-.1464l-1.0625-1.0621a.5.5 0 0 1 .707-.707l1.0625 1.062a.5.5 0 0 1 -.3535.8535z"></path><path d="m71.8181 39.3663c-2.955 17.9244-24.1273 24.4417-24.1273 24.4417-13.1622-8.762-18.7892-21.9695-7.2739-40.256 11.2937-17.9348 7.6794-21.0526 7.6794-21.0526s22.2474 11.2506 23.9456 30.0752" fill="#94af48"></path><path d="m47.6907 64.3078a.4956.4956 0 0 1 -.2769-.084c-10.6719-7.104-20.6221-19.9727-7.42-40.9385 10.72-17.0224 7.7905-20.3906 7.76-20.4228a.5119.5119 0 0 1 -.05-.6519.49.49 0 0 1 .6191-.1577c.2242.1138 22.5133 11.5942 24.2171 30.4771a.5.5 0 0 1 -.9961.09c-.8618-9.5537-7.2334-17.1025-12.4263-21.7524a61.2385 61.2385 0 0 0 -10.0358-7.2566c.3725 2.2949-.4155 7.7793-8.2417 20.2075-7.0249 11.1553-11.5049 27.0337 6.9258 39.438 2.2578-.7641 20.8506-7.5444 23.5591-23.9717a.4939.4939 0 0 1 .5747-.4116.5.5 0 0 1 .4116.5747c-2.9707 18.021-24.2588 24.7715-24.4737 24.8379a.501.501 0 0 1 -.1469.022z"></path><path d="m53.6394 46.923a.5.5 0 0 1 -.4634-.688 42.1833 42.1833 0 0 0 .7129-30.5786.5.5 0 0 1 .9473-.32 43.1465 43.1465 0 0 1 -.7334 31.2749.5.5 0 0 1 -.4634.3117z"></path><path d="m49.3684 68.4469a.4982.4982 0 0 1 -.352-.145c-.1836-.1821-4.4195-4.6162 2.4311-18.26a.5.5 0 0 1 .8936.4482c-6.5284 13.0027-2.6611 17.0623-2.6206 17.1019a.5.5 0 0 1 -.3521.8549z"></path><g fill="#fff"><path d="m46.1442 61.12s-12.4059-10.0589-9.3882-24.3648 10.7294-16.0941 13.1882-30.2882c0 0 .9248 7.9452-3.4647 14.5294-5.8118 8.7177-13.2995 24.253-.3353 40.1236z"></path><path d="m26.418 88.558 12.294-12.182 1.117 1.006z"></path><path d="m56.482 81.517 4.918-5.141 1.229 1.006z"></path></g></svg>