<svg xmlns="http://www.w3.org/2000/svg" id="illustration" height="512" viewBox="0 0 100 100" width="512"><g><g><g><g><g><path d="m58.893 57.074c2.24-4.228 3.673-9.182 3.673-14.788 0-17.16-13.029-22.721-24.627-24.786-7.433-1.324-20.417.397-27.249 9.93-8.095 11.295-6.551 23.591 1.43 34.161 8.818 11.678 19.225 14.618 28.123 11.758 4.247-1.365 9.524-4.594 13.882-9.462" fill="#94af48"></path><path d="m33.829 74.97c-7.944 0-15.771-4.518-22.188-13.018-8.744-11.581-9.255-23.965-1.439-34.872 7.056-9.844 20.517-11.477 27.842-10.172 16.67 2.969 25.123 11.507 25.123 25.377 0 5.311-1.259 10.38-3.743 15.068-.155.293-.52.403-.811.25-.293-.155-.405-.519-.25-.811 2.391-4.513 3.603-9.394 3.603-14.507 0-13.39-7.894-21.304-24.132-24.196-7.027-1.252-19.925.296-26.656 9.689-7.485 10.444-6.98 22.323 1.421 33.45 7.868 10.42 17.877 14.626 27.46 11.547 4.661-1.498 9.752-4.971 13.618-9.291.222-.247.601-.268.848-.047s.268.601.047.848c-4.002 4.471-9.291 8.072-14.146 9.633-2.189.705-4.398 1.052-6.597 1.052z"></path></g><g><path d="m23.162 28.463s4.29 4.29 9.851 4.29 10.804-4.29 10.804-4.29" fill="#94af48"></path><path d="m33.013 33.353c-5.744 0-10.093-4.284-10.275-4.466-.234-.234-.234-.614 0-.848s.614-.234.848-.001c.042.042 4.19 4.115 9.427 4.115 5.275 0 10.374-4.113 10.424-4.154.257-.21.635-.172.844.085.21.256.172.634-.084.844-.22.18-5.474 4.425-11.184 4.425z"></path></g><g><path d="m14.659 18.47c3.7 4.591 9.85 9.032 18.831 5.862 0 0-.794-4.449-6.197-9.215s-17.001-4.131-17.001-4.131.589 1.605 1.82 3.744" fill="#a2d5b0"></path><path d="m27.608 26.005c-6.155 0-10.576-3.634-13.417-7.159-.208-.258-.167-.636.091-.844.258-.207.636-.167.844.091 3.389 4.205 9.181 8.58 17.643 5.849-.381-1.258-1.741-4.73-5.873-8.376-4.322-3.814-12.972-4.03-15.717-4.004.289.659.771 1.683 1.454 2.868.166.287.066.654-.221.819-.287.164-.655.066-.819-.221-1.243-2.159-1.838-3.77-1.863-3.837-.065-.179-.042-.377.062-.537.104-.159.278-.259.468-.269.481-.026 11.907-.593 17.43 4.28 5.496 4.849 6.356 9.37 6.391 9.56.051.289-.114.573-.391.671-2.189.774-4.215 1.109-6.082 1.109z"></path></g><g><path d="m23.162 18.135s5.243 2.542 10.328 6.197" fill="#fff"></path><path d="m33.489 24.932c-.121 0-.244-.037-.35-.113-4.984-3.583-10.187-6.119-10.239-6.143-.298-.145-.423-.503-.278-.802.145-.298.504-.421.802-.278.053.026 5.348 2.607 10.416 6.249.269.193.331.568.137.837-.117.163-.301.25-.488.25z"></path></g><g><path d="m42.705 16.07s.159-1.748-1.748-3.178c0 0-10.854 5.155-8.923 19.817l1.455.044c.001 0-.794-12.87 9.216-16.683z" fill="#6b6d62"></path><path d="m33.49 33.353c-.006 0-.012 0-.018 0l-1.456-.044c-.294-.009-.538-.229-.576-.521-1.025-7.782 1.534-12.918 3.861-15.857 2.53-3.194 5.283-4.524 5.399-4.58.201-.096.439-.073.617.062 2.15 1.612 1.993 3.627 1.985 3.712-.021.229-.17.425-.384.506-9.473 3.608-8.837 15.961-8.83 16.086.01.168-.051.333-.168.454-.113.116-.268.182-.43.182zm-.923-1.228.311.009c.008-2.689.62-12.888 9.208-16.463-.064-.455-.308-1.281-1.201-2.064-1.769.979-9.724 6.108-8.318 18.518zm10.138-16.055h.01zm0 0h.01z"></path></g></g><g fill="#fff"><path d="m13.299 27.227s-6.56 7.52-5.911 17.063c.676 9.943 5.68 16.443 12.459 21.99 0 0-6.625-9.576-8.305-19.049-2.021-11.399 1.757-20.004 1.757-20.004z"></path><path d="m13.095 13.004s1.37 4.608 6.85 8.469c4.209 2.965 9.963 2.242 9.963 2.242s-10.586-1.121-16.813-10.711z"></path></g></g><g><path d="m5.65 61.625c-.207 0-.408-.107-.52-.299-.205-.353-.407-.713-.607-1.082-.159-.291-.051-.655.24-.814.291-.158.656-.051.814.24.196.359.393.71.592 1.054.166.287.068.654-.218.82-.095.055-.199.081-.301.081z"></path><path d="m25.219 77.884c-.03 0-.061-.002-.091-.007-.417-.063-10.316-1.692-18.571-14.238-.182-.277-.105-.649.172-.831.276-.181.648-.105.831.172 7.963 12.102 17.651 13.696 17.748 13.71.328.05.553.355.503.683-.045.298-.301.511-.592.511z"></path></g></g><g><g><g><g><path d="m85.148 68.384c-13.49 19.254-41.84 14.995-41.84 14.995-10.445-17.596-9.61-36.156 14.069-51.037 23.223-14.594 20.753-20.256 20.753-20.256s19.65 25.589 11.084 48.501" fill="#a2d5b0"></path><path d="m49.861 84.254c-3.953 0-6.542-.367-6.628-.38-.148-.022-.279-.11-.356-.239-8.435-14.21-12.813-34.718 14.233-51.715 22.252-13.984 20.575-19.595 20.555-19.65-.082-.232.013-.498.229-.615.216-.119.482-.069.632.126.05.064 4.997 6.556 8.819 15.771 3.54 8.533 6.818 21.221 2.336 33.209-.097.258-.381.389-.644.293-.258-.097-.39-.385-.293-.644 7.322-19.584-6.45-41.465-10.14-46.802-.63 2.697-4.25 8.653-20.963 19.157-14.512 9.12-28.7 25.214-14.028 50.149 2.729.342 28.611 3.042 41.124-14.818.159-.227.471-.28.697-.123.226.159.281.47.123.697-9.487 13.542-26.377 15.584-35.696 15.584z"></path></g><path d="m59.987 66.931c-.136 0-.271-.055-.37-.164-.186-.205-.17-.521.034-.707 10.368-9.417 16.259-20.985 18.011-35.363.033-.274.28-.478.557-.436.274.033.469.282.436.557-1.782 14.626-7.778 26.396-18.331 35.982-.096.088-.217.131-.337.131z"></path><path d="m42.944 89.646c-.205 0-.396-.126-.469-.331-.111-.311-2.535-7.76 13.018-19.773.219-.169.534-.128.701.09.169.219.129.533-.09.701-14.886 11.499-12.709 18.58-12.686 18.651.088.26-.049.544-.309.634-.055.019-.11.028-.165.028z"></path></g><path d="m42.709 78.058s-8.084-20.946 5.696-33.624 27.01-18.558 29.766-27.01c0 0 2.756 6.798-12.494 18.558s-25.356 24.988-22.968 42.076z" fill="#fff"></path></g></g><g><path d="m95.017 50.115c-.007 0-.014 0-.021 0-.276-.011-.49-.244-.479-.52.073-1.766.026-3.602-.139-5.455-.024-.275.179-.518.454-.542.283-.024.519.179.542.454.169 1.897.217 3.776.142 5.585-.012.268-.233.478-.499.478z"></path><path d="m94.225 39.914c-.236 0-.446-.167-.491-.408-2.734-14.621-11.504-26.67-11.593-26.79-.164-.223-.116-.536.106-.699.222-.164.536-.116.699.106.089.122 8.995 12.356 11.771 27.2.051.271-.128.533-.4.583-.03.005-.062.008-.092.008z"></path></g></g></svg>