<svg xmlns="http://www.w3.org/2000/svg" xmlns:xlink="http://www.w3.org/1999/xlink" viewBox="0 0 512 512"><linearGradient id="linear-gradient" gradientTransform="matrix(1 .012 -.012 1 4.26 -1.84)" gradientUnits="userSpaceOnUse" x1="186.41" x2="117.12" y1="380.6" y2="311.31"><stop offset="0" stop-color="#34344f"></stop><stop offset=".54" stop-color="#353551"></stop><stop offset="1" stop-color="#666684"></stop></linearGradient><linearGradient id="linear-gradient-2" gradientTransform="matrix(1 .012 -.012 1 4.27 -4.58)" x1="410.01" x2="340.71" xlink:href="#linear-gradient" y1="380.6" y2="311.31"></linearGradient><linearGradient id="linear-gradient-3" gradientUnits="userSpaceOnUse" x1="358.57" x2="154.11" y1="360.82" y2="156.36"><stop offset="0" stop-color="#13b601"></stop><stop offset=".52" stop-color="#13b601"></stop><stop offset="1" stop-color="#cbf4b4"></stop></linearGradient><linearGradient id="linear-gradient-4" x1="223.42" x2="133.16" xlink:href="#linear-gradient-3" y1="267.57" y2="177.31"></linearGradient><linearGradient id="linear-gradient-5" gradientUnits="userSpaceOnUse" x1="167.85" x2="93.01" y1="198.81" y2="123.98"><stop offset="0" stop-color="#fe7838"></stop><stop offset=".54" stop-color="#fe7636"></stop><stop offset="1" stop-color="#ffad8a"></stop></linearGradient><linearGradient id="linear-gradient-6" gradientUnits="userSpaceOnUse" x1="142.89" x2="117.95" y1="140.76" y2="115.81"><stop offset="0" stop-color="#ffddce"></stop><stop offset=".57" stop-color="#fff"></stop><stop offset="1" stop-color="#fff"></stop></linearGradient><g id="Layer_12" data-name="Layer 12"><path d="m496.52 129.86c-13.43-49.48-64.89-100.94-114.37-114.37-30.33-7.57-70.98-15.36-126.15-15.49-55.16.14-95.81 7.92-126.14 15.49-49.48 13.44-100.94 64.89-114.37 114.37-7.57 30.33-15.35 70.98-15.49 126.14.14 55.17 7.92 95.82 15.49 126.15 13.43 49.48 64.89 100.93 114.37 114.37 30.33 7.57 71 15.35 126.14 15.49 55.17-.14 95.82-7.92 126.15-15.49 49.48-13.44 100.94-64.89 114.37-114.37 7.57-30.33 15.35-71 15.49-126.15-.14-55.16-7.92-95.81-15.49-126.14z" fill="#e5f4d9"></path><circle cx="151.76" cy="345.95" fill="url(#linear-gradient)" r="49" transform="matrix(1 -.012 .012 1 -4.23 1.89)"></circle><circle cx="375.36" cy="345.95" fill="url(#linear-gradient-2)" r="49" transform="matrix(1 -.012 .012 1 -4.22 4.63)"></circle><path d="m276.53 156.44a15.64 15.64 0 0 0 10.91 4.56l26.56 95.68a51.2 51.2 0 0 1 -11.8 48.93s-15.82 17-39.5 17.07a28.28 28.28 0 0 1 -28.09-28.32 138.4 138.4 0 0 1 3.45-30.73 93.45 93.45 0 0 1 8.42-22.6c11.56-1.58 16-18.59 7.48-32.45-9-14.54-28.63-16.24-52.32-8s-45.8 3.83-76.43-1.4-35.57 41.94-13.36 41.94h13.43a98.58 98.58 0 0 0 -37.22 39.63 16 16 0 0 0 6.84 21.53 9.58 9.58 0 0 0 11-1.69 64 64 0 0 1 26.57-16.22 70.83 70.83 0 0 1 19.31-3 64.57 64.57 0 0 1 64.48 64.63q0 2-.12 4a3.29 3.29 0 0 0 3.31 3.52h74.83a17.71 17.71 0 0 0 17.09-15.63 64.55 64.55 0 0 1 44.63-53.48 70.86 70.86 0 0 1 19.32-3 64.2 64.2 0 0 1 40.84 14.62c4.69 3.84 11.34-1.57 8.46-6.9a.64.64 0 0 0 -.08-.14 95.39 95.39 0 0 0 -41.64-39.1q-3.76-1.83-7.61-3.3c-.86-44.29-52.27-85.66-52.27-85.66 13.81.83 14.3-12.95 14.3-12.95.84-16.67-10.44-30-26-30.94a18.84 18.84 0 0 0 -11.09 2.96l-9 5.65a58.9 58.9 0 0 1 -9.5 5 15.75 15.75 0 0 0 -9.36 10.68s-4.14 1.23-5.67 2.65a7.35 7.35 0 0 0 3.78 12.86 19.29 19.29 0 0 0 6.05-.4z" fill="url(#linear-gradient-3)"></path><path d="m246.49 241c11.56-1.58 16-18.59 7.48-32.45-9-14.54-28.63-16.24-52.32-8s-45.8 3.83-76.43-1.4-35.57 41.94-13.36 41.94h13.43z" fill="url(#linear-gradient-4)"></path><path d="m116.63 117.48c-4.37.16-8 .39-11.11.66a20.19 20.19 0 0 0 -18.34 18.34c-.52 5.86-.9 13.91-.9 24.91s.38 19.05.9 24.91a20.19 20.19 0 0 0 18.34 18.35h.46s13.18 1.1 26.37 1.1a236.6 236.6 0 0 0 24.85-1.39 20.22 20.22 0 0 0 16.49-18.1c.51-5.86.89-13.9.89-24.91s-.38-19-.89-24.91a20.21 20.21 0 0 0 -18.35-18.34c-2.9-.26-6.34-.48-10.41-.64z" fill="url(#linear-gradient-5)"></path><path d="m116.28 117.48s-.38 6.24-.38 12.5c0 2.13 0 5.22.11 7.78a2.72 2.72 0 0 0 3.86 2.39l9.42-4.34a2.73 2.73 0 0 1 2.27 0l9.42 4.34a2.72 2.72 0 0 0 3.86-2.39c.07-2.56.11-5.65.11-7.78.09-6.68-.37-12.48-.37-12.48a242.45 242.45 0 0 0 -28.3-.02z" fill="url(#linear-gradient-6)"></path></g></svg>