<svg xmlns="http://www.w3.org/2000/svg" id="illustration" height="512" viewBox="0 0 100 100" width="512"><path d="m50 2.5-36.0612 13.55v32.28c0 38.5535 36.0612 49.17 36.0612 49.17s36.0614-7.12 36.0614-49.17v-32.28z" fill="#a2d5b0"></path><path d="m50 98a.4961.4961 0 0 1 -.1411-.02c-.3642-.107-36.42-11.167-36.42-49.6494v-32.2806a.5.5 0 0 1 .3242-.4683l36.0616-13.55a.506.506 0 0 1 .3515 0l36.0611 13.55a.5.5 0 0 1 .3242.4683v32.28c0 41.9746-36.1 49.5883-36.4644 49.6606a.4983.4983 0 0 1 -.0971.0094zm-35.5613-81.6041v31.9341c0 36.624 33.3179 47.93 35.5845 48.6533 2.2788-.5122 35.5381-8.7251 35.5381-48.6533v-31.9341l-35.5613-13.3618z"></path><path d="m83.8478 18.114-33.8478-12.1217-33.04 12.1217v33.27c0 7.1838 3.2129 20.3278 16.2108 33.0336 0 0-13.1439-16.0068-13.1439-35.5327v-27.85l30.3771-11.51 33.4441 12.24z" fill="#fff"></path><path d="m29.9305 46.7359a40.6225 40.6225 0 0 1 -.1643-4.4391s11.597 4.3745 14.8181 11.3543 2.0809 11.6651 2.0809 11.6651c-10.1322-.7731-14.0968-7.7935-15.8591-13.8326a34.5356 34.5356 0 0 1 -.8756-4.7477z" fill="#94af48"></path><path d="m46.6658 65.8163-.0386-.0015c-8.252-.6294-13.7363-5.4038-16.3013-14.1909a34.8964 34.8964 0 0 1 -.8935-4.8452 40.6872 40.6872 0 0 1 -.1656-4.4995.5.5 0 0 1 .6758-.45c.4815.1816 11.8262 4.5283 15.0957 11.6128 3.2569 7.0566 2.1612 11.7944 2.1128 11.9926a.5.5 0 0 1 -.4853.3817zm-16.2373-19.1236a34.1578 34.1578 0 0 0 .8574 4.6509c2.3887 8.1836 7.4219 12.7017 14.9648 13.4351.1753-1.2783.4405-5.3687-2.1206-10.918-2.6601-5.7641-11.3808-9.7759-13.8711-10.8247.002.7578.0313 2.06.1695 3.6567z"></path><path d="m39.2513 54.8192a84.7445 84.7445 0 0 1 7.4139 10.497" fill="#94af48"></path><path d="m46.6658 65.8163a.4989.4989 0 0 1 -.4312-.2461 84.9978 84.9978 0 0 0 -7.3646-10.4273.5.5 0 0 1 .7627-.6474 86.0587 86.0587 0 0 1 7.4633 10.5669.5.5 0 0 1 -.43.7539z"></path><path d="m45.567 61.4932s-.5129-11.7906-14.4159-17.2532c0 0 10.2315 5.6755 14.4159 17.2532z" fill="#fff"></path><path d="m58.7359 39.51c-7.25 4.4181-14.7478 12.3638-11.9121 25.7812 0 0 6.5008-.2972 14.3222-7.1129s9.096-23.4943 9.096-23.4943a38.8305 38.8305 0 0 0 -5.6878 1.894" fill="#94af48"></path><path d="m46.8235 65.7909a.5.5 0 0 1 -.4888-.3965c-2.9267-13.8481 4.9868-21.9521 12.1411-26.3115a.5.5 0 1 1 .52.8535c-6.8022 4.1455-14.32 11.8022-11.7729 24.81 1.5459-.2066 7.1333-1.3155 13.5937-6.9454 6.6817-5.8222 8.51-19.2456 8.8579-22.4575a42.1257 42.1257 0 0 0 -4.93 1.6963.5.5 0 0 1 -.3819-.9248 39.06 39.06 0 0 1 5.77-1.9194.5.5 0 0 1 .6079.5259c-.0528.6894-1.3809 16.9619-9.2661 23.8335-7.8623 6.851-14.355 7.2226-14.6275 7.2353z"></path><path d="m57.6133 51.7122a114.368 114.368 0 0 1 -10.79 13.5786" fill="#94af48"></path><path d="m46.824 65.7909a.5.5 0 0 1 -.3643-.8423 114.8956 114.8956 0 0 0 10.7359-13.5112.5.5 0 1 1 .8349.55 115.905 115.905 0 0 1 -10.8423 13.646.4964.4964 0 0 1 -.3642.1575z"></path><path d="m51.36 62.4205s15.0786-5.1293 16.8894-25.2071c-.0001 0-3.4771 15.4025-16.8894 25.2071z" fill="#fff"></path></svg>