<svg xmlns="http://www.w3.org/2000/svg" xmlns:xlink="http://www.w3.org/1999/xlink" viewBox="0 0 512 512"><linearGradient id="linear-gradient" gradientUnits="userSpaceOnUse" x1="376.27" x2="135.74" y1="376.27" y2="135.74"><stop offset="0" stop-color="#fe7838"></stop><stop offset=".54" stop-color="#fe7636"></stop><stop offset="1" stop-color="#ffad8a"></stop></linearGradient><linearGradient id="linear-gradient-2" gradientUnits="userSpaceOnUse" x1="347.37" x2="214.8" y1="292.33" y2="159.76"><stop offset="0" stop-color="#ffddce"></stop><stop offset=".57" stop-color="#fff"></stop><stop offset="1" stop-color="#fff"></stop></linearGradient><g id="Layer_14" data-name="Layer 14"><path d="m496.53 129.86c-13.44-49.47-64.89-100.93-114.37-114.37-30.34-7.56-70.98-15.35-126.16-15.49-55.16.14-95.8 7.93-126.14 15.49-49.47 13.44-100.93 64.89-114.37 114.37-7.56 30.33-15.35 70.98-15.49 126.14.14 55.17 7.93 95.81 15.49 126.15 13.44 49.48 64.9 100.93 114.37 114.37 30.34 7.56 71 15.35 126.15 15.48 55.16-.13 95.81-7.92 126.15-15.48 49.48-13.44 100.93-64.89 114.37-114.37 7.56-30.34 15.35-71 15.48-126.15-.13-55.16-7.92-95.8-15.48-126.14z" fill="#fff1eb"></path><path d="m256 85.93a170.08 170.08 0 1 0 170.08 170.07 170.08 170.08 0 0 0 -170.08-170.07z" fill="url(#linear-gradient)"></path><path d="m319.49 320.21a18.84 18.84 0 0 1 -26.65 0l-50.16-50.16a18.82 18.82 0 0 1 -5.51-13.69c0-.12 0-.24 0-.36v-110.8a18.85 18.85 0 0 1 37.69 0v103.72l44.64 44.64a18.86 18.86 0 0 1 -.01 26.65z" fill="url(#linear-gradient-2)"></path></g></svg>