<svg xmlns="http://www.w3.org/2000/svg" id="illustration" height="512" viewBox="0 0 100 100" width="512"><g><g><g><g><g><path d="m83.69 59.015-.003-.003" fill="#fff"></path></g><path d="m94.948 59.228c-1.054-1.055-2.567-1.342-3.948-.751-.335.143-.869.427-1.63.862-.344-.539-.95-1.244-1.928-1.583-1.079-.373-2.313-.19-3.734.561-1.058-.6-2.952-1.122-4.689.036-.405.271-1.157.713-2.212 1.303-.948-.214-3.081-.257-5.098.689-1.959.918-7.842 3.671-9.24 4.234-1.145.053-2.305.145-3.459.239-4.094.333-7.96.647-10.79-.878-1.175-.632-2.234-1.337-3.259-2.018-2.913-1.938-5.665-3.77-9.609-2.641-1.658.474-3.126 1.143-4.68 1.851-3.143 1.432-6.393 2.913-11.647 2.913-.334 0-.605.271-.605.605v19.862c0 .334.271.605.605.605h7.093c3.99 0 11.699 2.053 16.124 3.896 3.465 1.443 7.933 1.594 10.711 1.594.412 0 1.792-.01 1.792-.01 2.254 0 10.971-3.016 23.521-12.338 13.078-9.716 16.337-12.536 17.43-15.087.592-1.377.306-2.89-.748-3.944zm-23.048 10.679c-.016-.926-1.027-2.77-1.045-2.796l13.402-7.722c1.082-.59 2.019-.753 2.789-.488.624.216 1.038.684 1.279 1.048zm7.791-10.546c.974-.65 1.983-.539 2.691-.309l-12.345 7.134c-.046-.041-1.207-.825-1.264-.853zm-12.487 5.424c-.132-.03-1.215-.188-1.5-.205-.018-.001-.035-.002-.052-.003 2.405-1.016 5.203-2.513 6.73-3.224.896-.418 1.772-.743 2.613-.696zm27.38-2.087c-1.033 2.408-5.363 5.917-17.04 14.592-12.187 9.052-20.759 12.099-22.799 12.099l-.688.004c-2.47.02-7.601.066-11.35-1.494-4.015-1.673-12.014-3.99-16.589-3.99h-6.488v-18.659c5.172-.112 8.55-1.652 11.544-3.016 1.512-.689 2.94-1.34 4.511-1.789 3.407-.97 5.7.553 8.606 2.485 1.048.696 2.131 1.417 3.355 2.076 3.144 1.694 7.373 1.351 11.463 1.019 1.175-.095 5.645-.29 6.524-.237.535.031 4.69-.136 5.103 4.732-.73 2.771-3.831 3.224-10.91 3.224-7.109 0-13.555 2.081-13.826 2.169-.318.104-.491.446-.387.763.084.255.321.417.575.417.062 0 .126-.01.188-.03.065-.021 6.532-2.109 13.45-2.109 6.52 0 10.673-.259 11.918-3.617 1.809-.847 19.378-11.596 19.732-11.748 1.096-.471 2.069-.054 2.615.494.547.547.963 1.52.493 2.615z"></path><g><path d="m4.605 68.221.055 23.188c0 .765.626 1.39 1.39 1.39h12.415c.765 0 1.39-.626 1.39-1.39v-27.372c0-.765-.626-1.39-1.39-1.39h-12.415c-.765 0-1.39.626-1.39 1.39" fill="#a2d5b0"></path><path d="m18.464 93.404h-12.414c-1.1 0-1.995-.895-1.995-1.995l-.055-23.186c0-.334.27-.606.604-.607h.001c.333 0 .604.27.605.604l.055 23.188c0 .434.352.786.785.786h12.414c.433 0 .785-.352.785-.785v-27.372c0-.433-.352-.785-.785-.785h-12.414c-.433 0-.785.352-.785.785 0 .334-.271.605-.605.605s-.605-.271-.605-.605c0-1.1.895-1.995 1.995-1.995h12.414c1.1 0 1.996.895 1.996 1.995v27.372c0 1.1-.895 1.995-1.996 1.995z"></path></g><g><path d="m12.257 88.263c-1.351 0-2.447-1.095-2.447-2.447s1.095-2.447 2.447-2.447 2.447 1.095 2.447 2.447" fill="#fff"></path><path d="m12.257 88.868c-1.683 0-3.052-1.369-3.052-3.052s1.369-3.052 3.052-3.052 3.052 1.369 3.052 3.052c0 .334-.271.605-.605.605s-.605-.271-.605-.605c0-1.015-.826-1.841-1.842-1.841-1.015 0-1.841.826-1.841 1.841s.826 1.841 1.841 1.841c.334 0 .605.271.605.605s-.27.606-.605.606z"></path></g><g><path d="m44.568 93.628c-.055 0-.11-.007-.165-.023-1.147-.324-2.28-.74-3.367-1.238-.304-.139-.437-.498-.298-.802.14-.303.498-.436.802-.298 1.03.472 2.104.867 3.19 1.173.322.091.509.425.419.747-.074.266-.317.441-.581.441z"></path><path d="m51.024 94.501c-.878 0-1.79-.044-2.73-.146-.332-.036-.573-.334-.537-.667s.342-.57.667-.537c6.95.755 12.519-1.854 12.575-1.881.3-.142.662-.017.806.286.144.301.017.662-.285.806-.207.1-4.548 2.139-10.496 2.139z"></path></g><g><path d="m13.481 58.727h-8.207c-.334 0-.605-.271-.605-.605s.271-.605.605-.605h8.207c.334 0 .605.271.605.605s-.27.605-.605.605z"></path><path d="m19.18 58.727h-2.301c-.334 0-.605-.271-.605-.605s.271-.605.605-.605h2.301c.334 0 .605.271.605.605s-.271.605-.605.605z"></path></g></g><path d="m5.969 63.678h1.199v27.526h-1.199z" fill="#fff"></path></g><g><g><path d="m38.985 6.105c-4.34 0-8.425 1.737-11.503 4.89-3.094 3.176-4.793 7.391-4.78 11.868 0 4.47 1.707 8.682 4.81 11.861 0 0 25.633 26.286 25.75 26.404.111-.113 25.794-26.35 25.794-26.35 3.092-3.169 4.793-7.385 4.793-11.869.014-4.491-1.68-8.706-4.769-11.872-3.075-3.153-7.163-4.868-11.514-4.89-8.265-.042-13.897 7.115-14.272 7.115-.374 0-6.427-7.157-14.309-7.157z" fill="#94af48"></path><path d="m53.262 61.733c-.162 0-.317-.065-.43-.18-.117-.118-24.706-25.333-25.753-26.406-3.212-3.293-4.982-7.655-4.982-12.284-.014-4.633 1.745-8.999 4.952-12.29 3.194-3.272 7.433-5.073 11.937-5.073 6.708 0 12.002 4.877 13.995 6.713.105.097.212.196.306.281.073-.071.158-.154.254-.247 1.716-1.661 6.928-6.704 13.954-6.704h.075c4.534.023 8.776 1.824 11.944 5.072 3.2 3.28 4.955 7.647 4.941 12.297 0 4.643-1.764 9.008-4.966 12.29-1.049 1.072-25.685 26.24-25.796 26.352-.114.114-.269.179-.431.179zm-14.277-55.023c-4.175 0-8.107 1.672-11.07 4.707-2.984 3.063-4.62 7.126-4.607 11.443 0 4.313 1.647 8.376 4.637 11.441.237.243 21.968 22.527 25.318 25.961 3.374-3.446 25.36-25.907 25.36-25.907 2.979-3.054 4.621-7.119 4.621-11.447.013-4.332-1.62-8.398-4.597-11.449-2.94-3.014-6.877-4.686-11.084-4.707-.024 0-.048 0-.071 0-6.534 0-11.309 4.62-13.11 6.364-.628.608-.777.752-1.088.752-.303 0-.446-.132-1.134-.766-1.898-1.748-6.939-6.392-13.175-6.392z"></path></g></g><g><path d="m32.577 33.665c-2.722-2.79-4.22-6.485-4.22-10.407-.012-3.928 1.479-7.627 4.194-10.413 2.364-2.421 5.405-3.891 8.68-4.22-.419-.046-.845-.071-1.278-.071-3.808 0-7.392 1.524-10.092 4.29-2.715 2.786-4.206 6.484-4.194 10.413 0 3.922 1.498 7.617 4.22 10.407 0 0 22.49 23.063 22.593 23.167.014-.014-19.903-23.166-19.903-23.166z" fill="#fff"></path></g><g><path d="m40.668 30.465h9.456v-9.456h6.304v9.456h9.456v6.304h-9.456v9.456h-6.304v-9.456h-9.456z" fill="#fff"></path><path d="m56.427 46.83h-6.304c-.334 0-.605-.271-.605-.605v-8.851h-8.85c-.334 0-.605-.271-.605-.605v-6.304c0-.334.271-.605.605-.605h8.85v-8.85c0-.334.271-.605.605-.605h6.304c.334 0 .605.271.605.605v8.85h8.85c.334 0 .605.271.605.605v6.304c0 .334-.271.605-.605.605h-8.85v8.851c.001.334-.27.605-.605.605zm-5.698-1.211h5.093v-8.851c0-.334.271-.605.605-.605h8.85v-5.093h-8.85c-.334 0-.605-.271-.605-.605v-8.85h-5.093v8.85c0 .334-.271.605-.605.605h-8.85v5.093h8.85c.334 0 .605.271.605.605z"></path></g></g><path d="m85.698 31.713c-.082 0-.165-.017-.244-.052-.306-.135-.444-.493-.309-.798 1.05-2.373 1.582-4.918 1.582-7.563.015-4.899-1.831-9.497-5.198-12.948-.712-.73-1.486-1.399-2.298-1.99-.27-.197-.331-.575-.134-.845.196-.27.575-.331.845-.134.868.63 1.693 1.345 2.453 2.124 3.59 3.679 5.559 8.579 5.543 13.795 0 2.813-.567 5.523-1.686 8.051-.099.226-.321.36-.554.36z"></path><path d="m81.934 37.273c-.152 0-.305-.057-.423-.172-.239-.233-.244-.616-.01-.856.926-.949 1.749-1.998 2.446-3.118.177-.283.551-.369.834-.194.284.177.37.55.194.834-.743 1.193-1.621 2.311-2.608 3.323-.118.122-.276.183-.433.183z"></path></g></svg>