<svg xmlns="http://www.w3.org/2000/svg" id="illustration" height="512" viewBox="0 0 100 100" width="512"><g><g><g><path d="m25.014 23.247-1.259-2.8s5.952-1.893 7.516-3.926 5.005-4.38 6.882-3.285 3.441-3.597 5.005-3.754c1.564-.156 3.441-1.408 5.631-3.597s1.877.313 3.597.782c1.721.469 1.408-.938 4.223 1.721s2.972 2.033 5.631 3.597 2.503 2.659 4.067 4.223 5.318 2.033 5.318 2.033 2.033-.469 1.564 3.597-12.826 5.787-21.741 5.474c-8.916-.311-26.434-4.065-26.434-4.065z" fill="#a2d5b0"></path><path d="m53.317 27.945c-.675 0-1.308-.011-1.89-.031-8.866-.311-26.363-4.042-26.538-4.079-.187-.04-.343-.167-.422-.341l-1.259-2.8c-.07-.156-.07-.334 0-.491s.203-.275.366-.327c1.606-.511 6.034-2.176 7.222-3.72 1.715-2.231 5.429-4.739 7.66-3.437.58.334 1.284-.512 2.218-1.749.773-1.024 1.503-1.992 2.425-2.084 1.358-.136 3.13-1.288 5.266-3.425.775-.775 1.347-1.093 1.901-1.059.617.035.973.483 1.288.879.28.353.545.686.991.808.441.12.687.088.972.051.947-.123 1.603.015 3.506 1.812 1.797 1.697 2.45 1.995 3.439 2.445.518.236 1.164.53 2.084 1.072 1.819 1.07 2.434 1.977 3.028 2.854.327.483.636.939 1.159 1.461 1.283 1.283 4.362 1.775 4.891 1.852.262-.031.846-.027 1.374.444.741.662 1.006 1.95.79 3.829-.544 4.687-12.984 6.036-20.471 6.036zm-27.88-5.222c2.341.492 17.903 3.706 26.032 3.991 9.665.337 20.75-1.702 21.124-4.943.228-1.971-.192-2.603-.383-2.784-.208-.196-.439-.164-.464-.157-.058.01-.136.014-.195.007-.162-.02-3.978-.514-5.668-2.204-.603-.603-.975-1.152-1.304-1.637-.567-.837-1.057-1.561-2.643-2.493-.867-.51-1.455-.777-1.973-1.014-1.059-.482-1.824-.831-3.766-2.665-1.696-1.602-2.044-1.556-2.526-1.494-.325.043-.771.099-1.442-.083-.825-.225-1.282-.8-1.615-1.219-.126-.158-.336-.423-.417-.428-.034 0-.282.007-.984.71-2.37 2.37-4.331 3.604-5.996 3.771-.399.04-1.085.949-1.586 1.612-.996 1.32-2.235 2.966-3.78 2.062-1.48-.859-4.673 1.272-6.104 3.132-1.358 1.765-5.555 3.355-7.172 3.918z"></path></g><g><path d="m75.664 67.93c.08 7.055.23 13.292 1.122 15.224 1.877 4.067 7.351 10.48 3.128 9.385s-18.457 0-28.623 0c-7.821 0-18.926-.626-26.747 2.033s-4.536-7.664-1.721-14.077-.313-19.864-.782-35.818c-.35-11.907 2.867-18.967.602-21.201-.065-.064-2.188-1.153-2.099-1.941.41-3.625 9.161-.476 18.077.776s19.552 2.033 26.277 0c5.49-1.66 7.731-3.748 9.608-2.966 1.408.782 1.086 3.605-.077 4.641h-.002c-.419 5.345-.876 14.814.324 22.256.669 4.145.794 10.747.865 17.266" fill="#fff"></path><path d="m22.341 95.598c-.985 0-1.762-.306-2.323-.917-2.4-2.616.383-10.163 2.256-14.428 1.757-4.001 1.107-10.942.285-19.729-.446-4.766-.951-10.167-1.118-15.83-.165-5.612.466-10.237.927-13.615.484-3.547.836-6.124-.106-7.135l-.076-.045c-1.166-.68-2.344-1.5-2.239-2.433.075-.666.374-1.194.887-1.568 1.729-1.262 5.719-.466 10.773.544 2.295.458 4.668.933 7.097 1.273 11.823 1.659 20.578 1.666 26.02.02 2.199-.665 3.87-1.4 5.213-1.991 2.077-.914 3.45-1.517 4.8-.955.738.405 1.169 1.14 1.275 2.099.134 1.214-.281 2.58-1.001 3.364-.395 5.11-.852 14.538.333 21.892.676 4.192.802 10.872.873 17.355.003.331-.262.603-.594.606-.002 0-.004 0-.006 0-.329 0-.596-.265-.6-.594-.07-6.437-.194-13.065-.857-17.176-1.222-7.578-.731-17.286-.33-22.399.012-.155.083-.298.199-.401.545-.485.892-1.59.79-2.515-.036-.325-.162-.907-.604-1.153-.816-.334-1.937.158-3.794.975-1.373.604-3.081 1.355-5.349 2.041-5.612 1.696-14.54 1.703-26.535.02-2.462-.346-4.961-.845-7.165-1.285-4.383-.876-8.525-1.702-9.83-.751-.237.173-.365.406-.402.734.016.027.172.399 1.65 1.262.157.091.21.122.273.185 1.421 1.402 1.052 4.104.494 8.193-.48 3.521-1.079 7.904-.917 13.417.166 5.625.669 11.006 1.113 15.753.838 8.96 1.5 16.038-.381 20.324-2.899 6.603-3.845 11.636-2.47 13.134.606.66 1.767.706 3.448.134 6.72-2.285 15.826-2.181 23.143-2.095 1.327.015 2.601.03 3.797.03 3.452 0 7.403-.127 11.224-.25 7.55-.244 14.682-.475 17.55.27.66.17.838.082.84.081.169-.508-1.403-3.049-2.343-4.567-.858-1.387-1.746-2.821-2.321-4.066-.95-2.06-1.095-8.224-1.177-15.468-.003-.332.262-.603.593-.607h.007c.328 0 .596.264.6.593.074 6.57.217 13.139 1.066 14.979.544 1.179 1.412 2.582 2.251 3.938 1.935 3.126 2.994 4.943 2.262 5.936-.547.74-1.7.441-2.08.343-2.703-.7-9.75-.473-17.21-.232-3.831.124-7.792.251-11.263.251-1.201 0-2.479-.015-3.811-.03-7.227-.082-16.218-.187-22.743 2.031-.898.305-1.698.458-2.394.458z"></path></g><g><g><path d="m47.928 82.546c-.332 0-.6-.269-.6-.6v-38.592c0-.332.269-.6.6-.6s.6.269.6.6v38.592c0 .332-.268.6-.6.6z"></path><g><path d="m50.505 38.035c0-2.149-1.008-4.06-2.577-5.292-1.568 1.232-2.577 3.144-2.577 5.292 0 2.149 1.008 4.06 2.577 5.292 1.025-.805 1.81-1.9 2.232-3.162" fill="#94af48"></path><path d="m47.928 43.927c-.131 0-.262-.043-.371-.128-1.783-1.401-2.806-3.502-2.806-5.764s1.022-4.363 2.806-5.764c.218-.171.523-.171.741 0 1.783 1.4 2.806 3.501 2.806 5.764 0 .332-.269.6-.6.6s-.6-.269-.6-.6c0-1.729-.714-3.345-1.977-4.505-1.262 1.16-1.976 2.776-1.976 4.505s.714 3.345 1.976 4.505c.763-.703 1.334-1.581 1.663-2.565.105-.314.446-.484.759-.379.314.105.484.445.379.759-.455 1.361-1.295 2.552-2.431 3.444-.107.085-.238.128-.369.128z"></path></g><g><g><path d="m42.311 46.866c1.519 1.519 3.584 2.158 5.564 1.92.238-1.98-.401-4.045-1.92-5.564s-3.584-2.158-5.564-1.92c-.238 1.98.401 4.045 1.92 5.564z" fill="#94af48"></path><path d="m47.055 49.435c-1.935 0-3.78-.758-5.168-2.146-1.6-1.6-2.362-3.809-2.092-6.06.033-.274.25-.491.524-.524 2.249-.269 4.46.492 6.06 2.092s2.362 3.809 2.092 6.06c-.033.274-.25.491-.524.524-.299.036-.596.054-.892.054zm-6.108-7.577c-.072 1.712.565 3.36 1.788 4.583 1.222 1.223 2.876 1.866 4.583 1.788.072-1.712-.565-3.36-1.788-4.583-1.222-1.222-2.877-1.87-4.583-1.788z"></path></g><g><path d="m53.546 46.866c-1.519 1.519-3.584 2.158-5.564 1.92-.238-1.98.401-4.045 1.92-5.564s3.584-2.158 5.564-1.92c.238 1.98-.401 4.045-1.92 5.564z" fill="#94af48"></path><path d="m48.802 49.435c-.296 0-.593-.018-.892-.054-.274-.033-.491-.25-.524-.524-.271-2.251.492-4.46 2.091-6.06 1.6-1.6 3.802-2.361 6.06-2.092.274.033.491.25.524.524.271 2.251-.491 4.46-2.091 6.06-1.387 1.389-3.234 2.146-5.168 2.146zm-.263-1.206c1.709.075 3.36-.565 4.583-1.788s1.86-2.871 1.788-4.583c-1.722-.079-3.361.566-4.583 1.788-1.223 1.223-1.861 2.871-1.788 4.583z"></path></g></g><g><g><path d="m42.311 54.457c1.519 1.519 3.584 2.158 5.564 1.92.238-1.98-.401-4.045-1.92-5.564s-3.584-2.158-5.564-1.92c-.238 1.98.401 4.045 1.92 5.564z" fill="#94af48"></path><path d="m47.054 57.026c-1.934 0-3.779-.757-5.167-2.145-1.6-1.601-2.362-3.809-2.092-6.06.033-.274.25-.491.524-.524 2.258-.27 4.461.492 6.06 2.091 1.6 1.6 2.362 3.809 2.092 6.06-.033.274-.25.491-.524.524-.299.037-.597.054-.893.054zm-4.319-2.993c1.223 1.223 2.883 1.856 4.583 1.788.072-1.712-.565-3.361-1.788-4.583-1.222-1.222-2.88-1.862-4.583-1.788-.072 1.711.566 3.36 1.788 4.583z"></path></g><g><path d="m51.724 55.755c-1.172.568-2.475.775-3.742.623-.238-1.98.401-4.045 1.92-5.564s3.584-2.158 5.564-1.92c.238 1.98-.401 4.045-1.92 5.564" fill="#94af48"></path><path d="m48.796 57.026c-.294 0-.59-.018-.885-.053-.274-.033-.491-.25-.524-.524-.271-2.251.492-4.46 2.091-6.06 1.6-1.6 3.806-2.359 6.06-2.091.274.033.491.25.524.524.271 2.25-.491 4.459-2.091 6.06-.234.234-.614.234-.849 0s-.234-.614 0-.849c1.223-1.223 1.86-2.871 1.788-4.583-1.711-.077-3.361.565-4.583 1.788s-1.86 2.871-1.788 4.583c1.007.042 2.013-.165 2.924-.605.298-.145.657-.02.801.279.145.298.02.657-.279.801-.997.482-2.085.73-3.189.73z"></path></g></g><g><g><path d="m42.311 62.048c1.519 1.519 3.584 2.158 5.564 1.92.238-1.98-.401-4.045-1.92-5.564s-3.584-2.158-5.564-1.92c-.238 1.98.401 4.045 1.92 5.564z" fill="#94af48"></path><path d="m47.055 64.618c-1.935 0-3.78-.758-5.168-2.146-1.6-1.6-2.362-3.809-2.092-6.06.033-.274.25-.491.524-.524 2.258-.268 4.461.492 6.06 2.092 1.6 1.599 2.362 3.808 2.092 6.06-.033.274-.25.491-.524.524-.299.035-.596.054-.892.054zm-6.108-7.578c-.072 1.712.565 3.36 1.788 4.583 1.222 1.222 2.876 1.862 4.583 1.788.072-1.712-.565-3.361-1.788-4.583-1.222-1.222-2.87-1.867-4.583-1.788z"></path></g><g><path d="m53.546 62.048c-1.519 1.519-3.584 2.158-5.564 1.92-.238-1.98.401-4.045 1.92-5.564s3.584-2.158 5.564-1.92c.238 1.98-.401 4.045-1.92 5.564z" fill="#94af48"></path><path d="m48.802 64.618c-.296 0-.593-.018-.892-.054-.274-.033-.491-.25-.524-.524-.271-2.252.492-4.46 2.091-6.06 1.6-1.6 3.806-2.362 6.06-2.092.274.033.491.25.524.524.271 2.251-.491 4.46-2.091 6.06-1.387 1.388-3.234 2.146-5.168 2.146zm-.263-1.207c1.709.075 3.36-.565 4.583-1.788s1.86-2.871 1.788-4.583c-1.711-.077-3.361.565-4.583 1.788-1.223 1.223-1.861 2.871-1.788 4.583z"></path></g></g><g><g><path d="m44.133 64.697c-1.172-.568-2.475-.775-3.742-.622-.238 1.98.401 4.045 1.92 5.564s3.584 2.158 5.564 1.92c.238-1.98-.401-4.045-1.92-5.564" fill="#94af48"></path><path d="m47.055 72.208c-1.934 0-3.78-.758-5.168-2.145-1.6-1.601-2.362-3.809-2.092-6.06.033-.274.25-.491.524-.524 1.403-.168 2.812.066 4.075.678.298.145.423.503.279.801-.144.299-.504.424-.801.279-.911-.441-1.913-.648-2.924-.605-.072 1.712.565 3.36 1.788 4.583 1.222 1.223 2.876 1.865 4.583 1.788.072-1.712-.565-3.36-1.788-4.583-.234-.234-.234-.614 0-.849s.614-.234.849 0c1.6 1.6 2.362 3.809 2.092 6.06-.033.274-.25.491-.524.524-.3.035-.598.053-.893.053z"></path></g><g><path d="m53.546 69.639c-1.519 1.519-3.584 2.158-5.564 1.92-.238-1.98.401-4.045 1.92-5.564s3.584-2.158 5.564-1.92c.238 1.98-.401 4.045-1.92 5.564z" fill="#94af48"></path><path d="m48.802 72.208c-.296 0-.593-.018-.892-.054-.274-.033-.491-.25-.524-.524-.271-2.251.492-4.46 2.091-6.06 1.601-1.6 3.809-2.364 6.06-2.091.274.033.491.25.524.524.271 2.25-.491 4.459-2.091 6.06-1.387 1.388-3.234 2.145-5.168 2.145zm-.263-1.206c1.701.08 3.36-.565 4.583-1.788s1.86-2.872 1.788-4.583c-1.71-.066-3.36.565-4.583 1.788s-1.861 2.871-1.788 4.583zm5.007-1.363h.01z"></path></g></g><g><g><path d="m42.311 77.23c1.519 1.519 3.584 2.158 5.564 1.92.238-1.98-.401-4.045-1.92-5.564s-3.584-2.158-5.564-1.92c-.238 1.98.401 4.045 1.92 5.564z" fill="#94af48"></path><path d="m47.055 79.8c-1.935 0-3.78-.758-5.168-2.146-1.6-1.601-2.362-3.809-2.092-6.06.033-.274.25-.491.524-.524 2.258-.267 4.461.492 6.06 2.092 1.6 1.599 2.362 3.808 2.092 6.06-.033.274-.25.491-.524.524-.298.036-.596.054-.892.054zm-4.32-2.994c1.223 1.222 2.876 1.867 4.583 1.788.072-1.712-.565-3.361-1.788-4.583-1.222-1.223-2.88-1.866-4.583-1.788-.072 1.711.566 3.36 1.788 4.583z"></path></g><g><path d="m53.546 77.23c-1.519 1.519-3.584 2.158-5.564 1.92-.238-1.98.401-4.045 1.92-5.564s3.584-2.158 5.564-1.92c.238 1.98-.401 4.045-1.92 5.564z" fill="#94af48"></path><path d="m48.802 79.8c-.295 0-.593-.018-.892-.054-.274-.033-.491-.25-.524-.524-.271-2.252.492-4.46 2.091-6.06 1.6-1.6 3.806-2.361 6.06-2.092.274.033.491.25.524.524.271 2.25-.491 4.459-2.091 6.06-1.388 1.388-3.234 2.146-5.168 2.146zm-.263-1.206c1.712.078 3.36-.566 4.583-1.788 1.223-1.223 1.86-2.871 1.788-4.583-1.711-.076-3.361.565-4.583 1.788-1.223 1.222-1.861 2.87-1.788 4.583zm5.007-1.364h.01z"></path></g></g></g><g><path d="m47.886 42.087s-3.998-3.6-.1-8.315c0 .001-1.799 4.286.1 8.315z" fill="#fff"></path></g><g><g><path d="m41.179 41.838s5.532.087 6.078 6.41c0 0-1.776-4.562-6.078-6.41z" fill="#fff"></path></g><g><path d="m54.543 41.838s-5.532.087-6.078 6.41c0 0 1.776-4.562 6.078-6.41z" fill="#fff"></path></g></g><g><g><path d="m41.179 49.467s5.532.087 6.078 6.41c0 0-1.776-4.562-6.078-6.41z" fill="#fff"></path></g><g><path d="m54.543 49.467s-5.532.087-6.078 6.41c0 0 1.776-4.562 6.078-6.41z" fill="#fff"></path></g></g><g><g><path d="m41.179 57.096s5.532.087 6.078 6.41c0 0-1.776-4.562-6.078-6.41z" fill="#fff"></path></g><g><path d="m54.543 57.096s-5.532.087-6.078 6.41c0 0 1.776-4.562 6.078-6.41z" fill="#fff"></path></g></g><g><g><path d="m41.179 64.725s5.532.087 6.078 6.41c0-.001-1.776-4.563-6.078-6.41z" fill="#fff"></path></g><g><path d="m54.543 64.725s-5.532.087-6.078 6.41c0-.001 1.776-4.563 6.078-6.41z" fill="#fff"></path></g></g><g><g><path d="m41.179 72.354s5.532.087 6.078 6.41c0-.001-1.776-4.563-6.078-6.41z" fill="#fff"></path></g><g><path d="m54.543 72.354s-5.532.087-6.078 6.41c0-.001 1.776-4.563 6.078-6.41z" fill="#fff"></path></g></g></g><path d="m29.863 19.181s2.659-1.877 3.597-3.285 2.503-2.19 3.91-1.408 3.285-1.251 4.692-2.503 1.095-1.251 3.754-2.033 4.38-3.441 4.38-3.441-1.251 3.285-3.285 4.38c-1.003.54-2.659.626-3.754 1.877s-3.285 3.128-4.223 2.972-2.659-.469-3.754.156c-1.094.626-4.066 3.597-5.317 3.285z" fill="#fff"></path></g><path d="m53.158 28.974c-7.634 0-15.032-.865-22.737-2.633-6.576-1.509-8.018-2.333-8.16-2.422-.281-.175-.367-.545-.192-.827.175-.279.541-.366.82-.196.07.04 1.471.822 7.801 2.274 10.728 2.463 20.856 3.155 31.877 2.177.332-.024.621.215.65.545s-.215.621-.545.65c-3.234.288-6.394.432-9.514.432z"></path><path d="m67.312 27.92c-.241 0-.468-.146-.56-.384-.12-.309.035-.656.344-.775 2.348-.906 6.132-2.512 6.934-3.225.246-.22.626-.199.847.049.22.248.198.627-.049.847-1.221 1.086-6.681 3.209-7.3 3.448-.071.028-.144.04-.216.04z"></path><g><path d="m19.005 58.341c-.32 0-.586-.253-.599-.576l-.482-12.035c-.013-.331.245-.61.576-.624.334-.008.61.244.624.576l.481 12.034c.013.331-.245.61-.576.624-.008 0-.016.001-.024.001z"></path><path d="m19.28 65.217c-.32 0-.586-.253-.599-.576l-.15-3.751c-.013-.331.245-.61.576-.624.308.006.61.244.624.576l.15 3.751c.013.331-.245.61-.576.624-.008 0-.016 0-.025 0z"></path></g><g><circle cx="37.801" cy="18.307" r=".675"></circle><circle cx="42.629" cy="16.078" r=".675"></circle><circle cx="34.864" cy="18.69" r=".675"></circle><circle cx="47.365" cy="14.099" r=".675"></circle><circle cx="43.639" cy="19.008" r=".675"></circle><circle cx="49.907" cy="10.889" r=".675"></circle><circle cx="48.68" cy="17.537" r=".675"></circle><circle cx="49.42" cy="19.734" r=".675"></circle><circle cx="53.599" cy="17.78" r=".675"></circle><circle cx="54.731" cy="14.66" r=".675"></circle><circle cx="55.485" cy="21.162" r=".675"></circle><circle cx="56.872" cy="18.24" r=".675"></circle><circle cx="60.653" cy="20.464" r=".675"></circle><circle cx="59.853" cy="16.74" r=".675"></circle><circle cx="65.229" cy="18.38" r=".675"></circle><circle cx="62.549" cy="15.366" r=".675"></circle><circle cx="57.415" cy="14.118" r=".675"></circle><circle cx="51.997" cy="12.812" r=".675"></circle><circle cx="55.084" cy="9.939" r=".675"></circle></g></g></svg>